<svg width="25" height="25" viewBox="0 0 25 25" fill="none" xmlns="http://www.w3.org/2000/svg">
<path d="M21.9706 17.1188L21.0624 21.0567C20.9348 21.6134 20.4455 22.0029 19.8724 22.0029C10.0164 22.0021 2 13.9857 2 4.12934C2 3.55663 2.38945 3.06674 2.94618 2.93977L6.88406 2.03148C7.45755 1.89858 8.04354 2.19626 8.28184 2.73936L10.0992 6.97804C10.3116 7.47731 10.1684 8.05901 9.74839 8.40201L7.64507 10.0908C8.97253 12.795 11.1712 14.9936 13.8761 16.3219L15.5982 14.2201C15.9376 13.799 16.5236 13.6533 17.0229 13.8695L21.2616 15.6865C21.7714 15.9547 22.1035 16.5485 21.9706 17.1188Z" fill="#FFFBF1"/>
</svg>
